<?xml version="1.0" encoding="UTF-8" standalone="no"?>
<!-- Created with Inkscape (http://www.inkscape.org/) -->

<svg
   width="472.54584mm"
   height="85.568565mm"
   viewBox="0 0 472.54584 85.568565"
   version="1.1"
   id="svg5"
   inkscape:version="1.1 (c4e8f9e, 2021-05-24)"
   sodipodi:docname="PyBots.svg"
   xmlns:inkscape="http://www.inkscape.org/namespaces/inkscape"
   xmlns:sodipodi="http://sodipodi.sourceforge.net/DTD/sodipodi-0.dtd"
   xmlns="http://www.w3.org/2000/svg"
   xmlns:svg="http://www.w3.org/2000/svg">
  <sodipodi:namedview
     id="namedview7"
     pagecolor="#ffffff"
     bordercolor="#666666"
     borderopacity="1.0"
     inkscape:pageshadow="2"
     inkscape:pageopacity="0.0"
     inkscape:pagecheckerboard="0"
     inkscape:document-units="mm"
     showgrid="false"
     inkscape:zoom="0.18446701"
     inkscape:cx="788.7589"
     inkscape:cy="360.49806"
     inkscape:window-width="1147"
     inkscape:window-height="637"
     inkscape:window-x="0"
     inkscape:window-y="30"
     inkscape:window-maximized="0"
     inkscape:current-layer="layer1"
     fit-margin-top="0"
     fit-margin-left="0"
     fit-margin-right="0"
     fit-margin-bottom="0" />
  <defs
     id="defs2" />
  <g
     inkscape:label="Layer 1"
     inkscape:groupmode="layer"
     id="layer1"
     transform="translate(106.3953,-11.768349)">
    <path
       style="fill:#9fe3f7;stroke-width:0.22993"
       d="m -6.6103694,88.223974 c -2.357789,-0.767723 -2.4322403,-0.927885 -2.4820298,-5.339558 -0.022963,-2.034379 0.059927,-3.991907 0.1841883,-4.350073 0.2580392,-0.743742 2.187578,-2.346419 3.0435302,-2.527951 0.3151978,-0.06686 8.0713552,-0.139799 17.2359037,-0.162103 9.164547,-0.02229 16.741777,-0.107303 16.838287,-0.188882 0.238588,-0.20167 0.287108,-2.418163 0.0572,-2.613332 -0.101248,-0.08596 -7.923995,-0.153747 -17.38388,-0.150647 -16.6318607,0.0056 -17.2266294,-0.008 -18.012704,-0.407704 -0.4471028,-0.22733 -0.8129145,-0.429759 -0.8129145,-0.449843 0,-0.02005 -0.270191,-0.665988 -0.600422,-1.435333 -0.5007087,-1.166503 -0.5881408,-1.717952 -0.5264794,-3.320566 0.049357,-1.282952 -0.023662,-1.990201 -0.2196375,-2.127652 -0.1614664,-0.113238 -1.3668556,-0.201943 -2.6786386,-0.197118 -3.308264,0.01214 -5.550717,-0.655771 -6.19151,-1.844203 -0.413541,-0.766956 -0.40941,-24.78987 0.0044,-25.557322 0.161189,-0.298947 0.63956,-0.719935 1.063043,-0.93553 0.714155,-0.363575 1.458919,-0.391806 10.2748209,-0.389497 7.24573407,0.0016 9.6534819,0.06702 10.1301754,0.27407 0.8670206,0.376564 2.4277527,1.783347 2.6848986,2.420066 0.1173727,0.290631 0.2043321,5.114536 0.1932467,10.719801 l -0.020165,10.191384 0.6345619,0.106112 c 0.3490083,0.05832 5.2763655,0.101566 10.9496845,0.09602 7.599398,-0.0072 10.364494,-0.07525 10.502657,-0.257726 0.103145,-0.136205 0.191434,-5.003328 0.196197,-10.815824 0.01006,-12.257988 -0.178228,-11.365564 2.579828,-12.228207 1.646631,-0.515021 1.776848,-0.522027 9.673189,-0.520693 7.34626,0.0016 8.131139,0.03635 9.549974,0.427659 0.850234,0.234471 1.806973,0.661139 2.126086,0.948152 l 0.580201,0.521843 0.06436,20.094813 0.06437,20.09482 -1.462583,1.235916 -1.462584,1.235907 -1.853448,0.02237 c -1.019395,0.0123 -2.164397,0.0048 -2.544449,-0.01622 -0.380052,-0.02125 -1.00331,0.01933 -1.385017,0.0902 l -0.694015,0.128807 0.02858,2.79365 c 0.03236,3.163119 -0.20546,3.95285 -1.370675,4.551648 -0.732154,0.376244 -1.781768,0.393212 -24.089848,0.389425 l -23.3243427,-0.004 z M 37.643,83.746763 c 0.103179,-0.0093 0.187598,-0.998648 0.187598,-2.198559 0,-3.027666 0.770673,-4.918993 2.200811,-5.401062 0.371612,-0.12526 2.045257,-0.253772 3.719215,-0.285574 1.673954,-0.0318 3.136052,-0.136125 3.249104,-0.231812 0.251601,-0.21295 0.282777,-34.076424 0.03157,-34.288703 -0.286106,-0.241766 -12.191478,-0.18889 -12.48061,0.05544 -0.163139,0.137858 -0.252167,4.019891 -0.251811,10.980196 5e-4,11.468145 0.0094,11.382044 -1.242103,12.166887 -0.620322,0.389026 -1.244656,0.405578 -15.297696,0.405578 -15.8347668,0 -15.6992355,0.0093 -16.391701,-1.122262 C 0.33570294,62.14107 0.31142787,61.854576 0.31142787,51.364677 V 41.245805 l -0.9379787,-0.02133 c -4.12169847,-0.09364 -11.26422917,-0.06199 -11.56841017,0.05129 -0.325816,0.121322 -0.370489,1.317654 -0.339453,9.090666 0.01966,4.92302 0.0478,9.107882 0.06254,9.299687 0.02354,0.306393 0.474577,0.350961 3.7145747,0.367058 5.3410107,0.02652 5.532258,0.190135 5.5367002,4.736463 0.00151,1.619165 0.065778,2.997085 0.1426537,3.062048 0.076877,0.06495 7.5399694,0.109867 16.5846494,0.09979 15.649089,-0.01742 16.5188,0.0016 17.972611,0.393859 0.840256,0.226707 1.796995,0.65439 2.126085,0.950397 0.590833,0.531446 0.598349,0.592574 0.598349,4.866581 v 4.328376 l -1.416238,1.150046 -1.416239,1.150047 -1.835422,0.0099 c -1.009484,0.0056 -8.363757,0.0072 -16.342834,0.0032 -7.9790753,-0.0032 -14.9345932,0.04857 -15.456705,0.115962 l -0.9492961,0.12248 0.073852,1.300823 0.073852,1.30083 1.1255755,0.105681 c 0.8591938,0.08067 38.6950986,0.09682 39.5827186,0.01685 z m -126.455103,-2.975988 -1.954003,-0.10568 -1.360191,-1.196748 -1.360191,-1.196756 V 51.036963 c 0,-26.438487 0.01418,-27.267458 0.485823,-28.357787 0.267198,-0.617739 0.62481,-1.264684 0.794693,-1.437656 0.861851,-0.877526 0.353122,-0.862783 29.860395,-0.865345 27.613349,-0.0024 28.283167,0.0071 29.077355,0.411055 0.447103,0.22743 0.812915,0.429942 0.812915,0.450027 0,0.02008 0.269005,0.663226 0.597791,1.429201 0.491588,1.14526 0.586261,1.727132 0.532892,3.275218 -0.0357,1.035396 -0.01303,1.997544 0.05037,2.138109 0.08036,0.178163 0.888101,0.251136 2.666852,0.240927 3.481354,-0.01997 5.713052,0.625273 6.368784,1.84141 0.413541,0.766962 0.409409,24.789874 -0.0044,25.557325 -0.594306,1.102212 -1.492365,1.328487 -5.288917,1.332577 -1.900751,0.0024 -3.532834,0.06878 -3.626853,0.148252 -0.09402,0.07949 -0.18186,1.159033 -0.1952,2.398991 -0.01333,1.239966 -0.04148,2.431201 -0.06253,2.647211 -0.05084,0.52166 -2.309351,2.403793 -3.080827,2.567414 -0.335036,0.0711 -8.107421,0.147445 -17.27197,0.169749 -9.164547,0.02229 -16.756423,0.119676 -16.870833,0.216385 -0.114411,0.0967 -0.208185,3.287174 -0.208384,7.08992 -2.51e-4,6.228555 -0.04377,6.970076 -0.438089,7.478666 -0.816788,1.053474 -1.015004,1.076113 -9.56739,1.092506 -4.402242,0.0085 -8.88339,-0.03219 -9.95809,-0.09034 z m 14.085202,-11.690569 0.125063,-6.723534 1.416239,-1.149759 1.416239,-1.149759 1.835422,-0.0099 c 1.009483,-0.0056 8.363758,-0.0072 16.342834,-0.0032 7.979075,0.0032 14.921142,-0.04665 15.426813,-0.111688 l 0.919402,-0.118214 0.08111,-2.926787 c 0.07542,-2.721401 0.121826,-2.963366 0.66131,-3.448023 0.966447,-0.86821 3.320524,-1.405871 5.898341,-1.347148 1.364204,0.03108 2.332827,-0.03922 2.501278,-0.181579 0.192098,-0.162327 0.264347,-2.869964 0.239847,-8.988789 -0.01928,-4.816076 -0.04742,-8.967642 -0.06254,-9.225713 -0.02595,-0.443223 -0.13488,-0.468699 -1.965961,-0.459794 -5.685181,0.02765 -5.536288,0.0447 -6.465803,-0.740757 l -0.850434,-0.718637 v -3.191589 c 0,-3.16371 -0.0049,-3.191741 -0.562787,-3.209062 -0.754281,-0.02342 -48.415647,-0.02428 -49.212665,-8.79e-4 l -0.625353,0.01832 0.03063,24.571005 c 0.01683,13.514058 0.045,24.825603 0.06258,25.136765 0.01966,0.348069 0.200345,0.600874 0.469642,0.657042 0.240746,0.05025 3.082825,0.08096 6.315727,0.06838 l 5.878002,-0.02293 z m 2.751405,-12.453644 c -0.756636,-0.220252 -1.657096,-0.634394 -2.001022,-0.92032 l -0.62532,-0.519862 -0.06827,-12.693388 -0.06827,-12.69339 0.85618,-0.723491 c 0.816011,-0.689548 0.942424,-0.724007 2.694617,-0.734505 1.011141,-0.0061 7.657001,-0.01125 14.768576,-0.01154 13.9522,-6.34e-4 13.9723,0.001 14.653548,1.114178 1.040111,1.69962 1.055944,1.902521 1.055944,13.53293 0,7.983998 -0.08192,11.32185 -0.285945,11.651258 -0.411308,0.66408 -1.736099,1.811178 -2.46546,2.13477 -0.4939,0.219126 -3.411422,0.276005 -13.882091,0.270628 -12.348038,-0.0064 -13.351076,-0.03427 -14.632475,-0.407272 z m 25.186846,-4.677859 c 0.09277,-0.07837 0.175965,-4.275883 0.184892,-9.327758 l 0.01623,-9.185233 -0.625319,-0.104217 c -0.343926,-0.05732 -5.319696,-0.10006 -11.057266,-0.09498 -9.544601,0.0085 -10.440501,0.03935 -10.532508,0.36324 -0.08718,0.30689 -0.04562,16.966265 0.04517,18.108539 0.03308,0.416139 0.203152,0.42241 10.916869,0.402822 5.985798,-0.01094 10.959167,-0.08403 11.051929,-0.162415 z m 108.053215,28.822072 -1.954,-0.10568 -1.360193,-1.196748 -1.360192,-1.196756 V 51.036963 c 0,-26.438487 0.01421,-27.267458 0.48582,-28.357787 0.267202,-0.617739 0.624817,-1.264684 0.794698,-1.437656 0.861851,-0.877526 0.353116,-0.862783 29.860389,-0.865345 27.613343,-0.0024 28.283163,0.0071 29.077343,0.411055 0.44711,0.22743 0.81292,0.429942 0.81292,0.450027 0,0.02008 0.26901,0.663226 0.59779,1.429201 0.49159,1.14526 0.58626,1.727132 0.5329,3.275218 -0.0357,1.035396 -0.013,1.997544 0.0504,2.138109 0.0803,0.178163 0.88809,0.251136 2.66684,0.240927 1.74635,-0.01002 2.9326,0.09467 3.75889,0.331723 3.04268,0.872923 2.89858,0.372932 2.89858,10.057 0,9.684071 0.1441,9.184076 -2.89858,10.057 -0.829,0.237835 -2.01398,0.341734 -3.78173,0.331589 -1.41593,-0.0081 -2.58962,0.05272 -2.6082,0.135246 -0.0186,0.08251 -0.0515,0.744484 -0.0732,1.471042 -0.0455,1.524853 -0.39261,1.393074 3.57725,1.357996 1.58202,-0.01398 2.55834,0.07621 3.00153,0.277299 0.76098,0.345272 2.08228,1.485797 2.49698,2.155356 0.40744,0.657825 0.40089,16.320019 -0.008,17.076749 -0.61057,1.132376 -1.47801,1.34305 -5.37866,1.306319 l -3.54566,-0.03339 -0.12,0.52841 c -0.066,0.290623 -0.0735,1.60632 -0.0167,2.923775 0.0826,1.91705 0.0212,2.541443 -0.30759,3.126923 -0.8201,1.460409 0.96845,1.371856 -28.565945,1.414332 -14.674264,0.02109 -27.559766,-0.0092 -28.634468,-0.06734 z m 51.604365,-7.962828 c 0.11548,-2.766336 0.1695,-3.035694 0.70526,-3.516788 0.9667,-0.868051 3.32085,-1.405632 5.89834,-1.346908 1.37388,0.03132 2.33243,-0.0389 2.50337,-0.183353 0.29963,-0.253189 0.36168,-10.341153 0.0651,-10.591722 -0.0883,-0.07461 -1.54092,-0.131971 -3.22808,-0.127505 -4.06116,0.01078 -4.54638,-0.193874 -5.45824,-2.301979 -0.41687,-0.963745 -0.48581,-1.689065 -0.48581,-5.110342 v -3.987194 l 0.85043,-0.718633 c 0.92951,-0.785458 0.78063,-0.768402 6.4658,-0.740754 1.82998,0.0089 1.94024,-0.01686 1.96973,-0.459797 0.0984,-1.47796 0.11933,-9.243386 0.0265,-9.815367 l -0.11043,-0.680242 -1.91213,0.0091 c -5.65862,0.02688 -5.51045,0.04393 -6.43946,-0.741105 l -0.85043,-0.718635 v -3.19159 c 0,-3.16371 -0.005,-3.191741 -0.56279,-3.209063 -0.75428,-0.02342 -48.415642,-0.02427 -49.212663,-8.78e-4 l -0.625344,0.01835 0.03064,24.571009 c 0.01686,13.51405 0.045,24.825595 0.06256,25.136757 0.01971,0.349251 0.199424,0.59966 0.469641,0.65435 0.240749,0.04873 11.524638,0.07949 25.075309,0.0683 l 24.637597,-0.02029 z M 78.190134,72.671743 c -0.647839,-0.299667 -2.204682,-1.636533 -2.551564,-2.191042 -0.410126,-0.655604 -0.406212,-16.315457 0.0043,-17.076749 0.16119,-0.298947 0.639559,-0.721988 1.063042,-0.940084 0.728476,-0.375174 1.511311,-0.396455 14.526994,-0.394993 13.084324,0.0016 13.832614,0.02229 15.302924,0.425294 0.85023,0.23305 1.80697,0.658559 2.12608,0.945572 l 0.5802,0.521843 v 8.526156 8.526156 l -0.59835,0.53826 c -0.32909,0.29604 -1.28582,0.723331 -2.12608,0.949534 -1.43637,0.386686 -2.31528,0.410492 -14.695553,0.398022 -8.413498,-0.0085 -13.335394,-0.09078 -13.631963,-0.227969 z m 25.123436,-4.892368 c 0.23298,-0.196885 0.22747,-10.390857 -0.006,-10.587919 -0.21931,-0.185318 -21.511326,-0.219429 -21.864406,-0.03507 -0.154784,0.08084 -0.232987,1.947312 -0.207401,4.949909 0.05365,6.294725 -0.03639,5.732012 0.929705,5.810723 1.6264,0.132514 20.977162,0.0064 21.147822,-0.137675 z m -23.289422,-18.71313 -1.954001,-0.10568 -1.360192,-1.196748 -1.360192,-1.196756 v -8.388585 -8.388582 l 0.850434,-0.718636 c 0.46774,-0.39525 1.114945,-0.726497 1.438235,-0.736105 0.32329,-0.0096 6.691736,-0.01404 14.152105,-0.0098 11.670723,0.0065 13.726303,0.0541 14.724813,0.340558 2.98805,0.857247 2.85179,0.377354 2.85179,10.043574 0,9.667087 0.13664,9.186217 -2.85403,10.044219 -0.98448,0.282442 -2.95459,0.34008 -12.848861,0.375932 -6.427353,0.02333 -12.5654,-0.0056 -13.6401,-0.06335 z M 103.3953,43.710782 c 0.0969,-1.417144 0.12003,-9.227645 0.029,-9.791637 l -0.10786,-0.668699 -10.512668,-0.003 c -5.781969,-0.0017 -10.754249,0.0746 -11.049515,0.169465 -0.528415,0.169767 -0.536307,0.246708 -0.502494,4.89898 0.04293,5.906194 0.01693,5.629518 0.538732,5.73587 0.240749,0.04905 5.193279,0.09526 11.005623,0.102645 l 10.567902,0.01342 0.0312,-0.457032 z m 42.99074,37.040046 c -2.80846,-0.188067 -4.39998,-0.732054 -5.04331,-1.7238 -0.19113,-0.294641 -0.32573,-1.50449 -0.3538,-3.180167 -0.025,-1.487531 -0.11359,-2.762294 -0.19705,-2.832825 -0.0835,-0.07054 -1.53216,-0.124566 -3.21932,-0.1201 -4.06116,0.01078 -4.54637,-0.193874 -5.45824,-2.301979 -0.45856,-1.060159 -0.48581,-1.762456 -0.48581,-12.520755 V 46.673613 l 1.46074,-1.234366 1.46075,-1.234358 1.85345,-0.02237 c 1.01939,-0.0123 2.1644,-0.0048 2.54444,0.01622 0.38006,0.02125 0.99953,-0.01869 1.37661,-0.08864 l 0.68559,-0.127249 -0.0327,-2.795207 c -0.0371,-3.162505 0.20124,-3.941468 1.39289,-4.553837 0.73299,-0.376684 1.7871,-0.394618 23.96479,-0.407752 l 23.19805,-0.01374 1.6691,0.521069 c 2.38852,0.745658 2.55262,1.021479 2.58887,4.351151 0.016,1.480653 0.11506,2.764691 0.21986,2.853404 0.10481,0.08872 1.56015,0.187331 3.23411,0.219134 4.2596,0.08094 4.63799,0.254131 5.50171,2.518252 0.36926,0.967948 0.41831,2.400925 0.41831,12.220138 0,8.001469 -0.0811,11.253189 -0.2888,11.585281 -0.36824,0.588628 -1.92678,1.909805 -2.61596,2.217524 -0.29202,0.130397 -1.57908,0.22669 -2.87647,0.215203 -1.29135,-0.01142 -2.63677,-0.008 -2.98983,0.0081 l -0.6419,0.02884 0.0483,2.906248 c 0.0369,2.214344 -0.0417,3.072002 -0.3298,3.602489 -0.76236,1.403667 0.40751,1.335133 -23.52906,1.378296 -11.92378,0.02149 -22.52374,-0.01741 -23.55552,-0.08653 z m 41.53835,-7.377771 c 0.14335,-2.450829 0.39405,-3.441289 1.10214,-4.354491 0.70471,-0.908833 1.52538,-1.09332 4.82479,-1.084573 1.68716,0.0048 3.1431,-0.05568 3.23542,-0.133712 0.0923,-0.07797 0.17514,-4.275196 0.18408,-9.327071 l 0.0163,-9.185235 -0.6847,-0.127074 c -0.3766,-0.0699 -0.99566,-0.109698 -1.37571,-0.08846 -0.38004,0.02125 -1.52505,0.02852 -2.54445,0.01622 l -1.85347,-0.02237 -1.46075,-1.234358 -1.46074,-1.234365 V 44.03986 c 0,-1.701368 -0.0964,-2.60806 -0.288,-2.708116 -0.21391,-0.11172 -38.60605,-0.210738 -40.4203,-0.104251 -0.22854,0.01342 -0.31266,0.60538 -0.31266,2.200013 0,3.027666 -0.77067,4.918993 -2.2008,5.401062 -0.37162,0.12526 -2.04527,0.253772 -3.71922,0.285582 -1.67396,0.03179 -3.13446,0.134767 -3.24556,0.228808 -0.11111,0.09404 -0.20696,4.302813 -0.21301,9.352835 l -0.011,9.181855 0.63023,0.02884 c 0.34662,0.0159 1.68679,0.01949 2.97815,0.0081 2.57826,-0.02285 2.97672,0.08929 4.30431,1.211127 1.36768,1.155735 1.47691,1.458381 1.47691,4.092619 0,1.325139 0.0659,2.464992 0.14632,2.533007 0.0805,0.06798 9.28207,0.107638 20.44795,0.08807 l 20.30162,-0.03555 z m -34.7849,-0.89423 c -0.75663,-0.220252 -1.65709,-0.634394 -2.00101,-0.92032 l -0.62532,-0.519862 -0.0683,-12.693388 -0.0682,-12.693387 0.85616,-0.72349 c 0.81602,-0.689555 0.94243,-0.72401 2.69463,-0.734507 1.01114,-0.0064 7.65701,-0.01126 14.76857,-0.0115 13.9527,-6.32e-4 13.97888,0.0016 14.64853,1.114178 1.0339,1.718072 1.05354,1.969847 1.05732,13.559193 0.003,7.969722 -0.0782,11.295393 -0.2823,11.624992 -0.41131,0.664079 -1.73611,1.811178 -2.46546,2.13477 -0.4939,0.219126 -3.41142,0.276004 -13.88209,0.270628 -12.34803,-0.0064 -13.35107,-0.03427 -14.63248,-0.407272 z m 25.18685,-4.677859 c 0.0927,-0.07837 0.17596,-4.275883 0.18489,-9.327758 l 0.0163,-9.185235 -0.62532,-0.104218 c -0.34392,-0.05728 -5.31969,-0.100057 -11.05727,-0.09498 -9.5446,0.0085 -10.44048,0.03938 -10.53251,0.363239 -0.0872,0.306896 -0.0457,16.966267 0.0452,18.108541 0.0331,0.416139 0.20316,0.42241 10.91689,0.402822 5.98577,-0.01094 10.95917,-0.08403 11.05192,-0.162415 z m 61.73256,13.021086 c -0.82542,-0.02996 -1.76931,-0.106312 -2.0975,-0.169749 -0.66859,-0.129231 -3.01251,-2.002975 -3.06213,-2.447881 -0.0175,-0.157878 -0.0464,-6.676122 -0.0641,-14.484994 -0.0178,-7.808857 -0.12512,-14.276581 -0.23878,-14.372715 -0.11363,-0.09613 -3.82487,-0.196023 -8.24718,-0.221978 -5.2744,-0.031 -8.27488,-0.129198 -8.72164,-0.285574 -1.40461,-0.491647 -1.55766,-0.988614 -1.58988,-5.162684 -0.0268,-3.484299 0.0198,-3.920114 0.55261,-5.177494 0.32006,-0.755117 0.58195,-1.389376 0.58195,-1.409467 0,-0.02005 0.36581,-0.224726 0.81291,-0.454764 0.76149,-0.39179 1.27978,-0.418248 8.19169,-0.418168 4.05832,4.8e-5 7.66055,-0.0097 8.00498,-0.02173 l 0.62623,-0.02181 -0.0167,-6.076701 c -0.016,-5.833472 0.007,-6.131656 0.56188,-7.449649 0.31826,-0.755121 0.57865,-1.38938 0.57865,-1.409465 0,-0.02008 0.36581,-0.223006 0.81291,-0.450935 0.76982,-0.392451 1.31672,-0.414285 10.31777,-0.41193 10.15086,0.0026 10.44664,0.03056 11.2378,1.060473 0.99408,1.294077 1.11169,2.190998 1.11088,8.471254 0,3.353795 0.0645,6.152901 0.14411,6.220228 0.0797,0.06734 3.66088,0.1172 7.95826,0.110809 9.38797,-0.01398 9.18484,-0.05967 10.20624,2.297274 0.41973,0.968603 0.4856,1.659955 0.47076,4.942136 -0.0182,4.048106 -0.12711,4.504835 -1.23958,5.202379 -0.57777,0.362264 -1.28003,0.39715 -8.92143,0.4431 -4.56186,0.02748 -8.36986,0.113813 -8.4622,0.191941 -0.0924,0.07813 -0.16041,6.866584 -0.15125,15.085461 l 0.0167,14.9434 -0.8449,0.713968 c -0.46469,0.392677 -1.05313,0.718234 -1.30764,0.723451 -2.47222,0.05073 -16.06584,0.08368 -17.2213,0.04178 z m 13.3129,-5.194766 c 0.10145,-0.135454 0.20035,-6.618892 0.21976,-14.407633 0.0195,-7.78875 0.0496,-14.281478 0.0673,-14.428283 0.0469,-0.390672 1.7949,-1.928227 2.60694,-2.29304 0.57208,-0.257007 2.05917,-0.315659 8.19108,-0.32308 5.39246,-0.0064 7.54485,-0.07765 7.68033,-0.253916 0.10349,-0.134671 0.18819,-0.791713 0.18819,-1.46009 0,-1.149495 -0.0338,-1.216415 -0.62532,-1.237138 -0.34393,-0.01206 -3.94577,-0.02189 -8.00409,-0.02181 -6.91191,7.9e-5 -7.43019,-0.02636 -8.19168,-0.418169 -0.44711,-0.230038 -0.81292,-0.43468 -0.81292,-0.454764 0,-0.02005 -0.26039,-0.654349 -0.57864,-1.409466 -0.55549,-1.317998 -0.57797,-1.616178 -0.56189,-7.449651 l 0.0167,-6.076702 -0.62622,-0.02065 c -0.74114,-0.02443 -10.87854,-0.02143 -11.69437,0.0034 l -0.56278,0.01718 v 6.185368 c 0,5.597693 -0.0461,6.292081 -0.48582,7.308528 -1.0129,2.341689 -0.87548,2.30916 -9.76942,2.312227 -4.05832,0.0016 -7.63718,0.01238 -7.95299,0.02437 -0.54733,0.02077 -0.57074,0.08857 -0.50026,1.448507 l 0.0739,1.426706 6.00307,0.04226 c 3.30168,0.02325 6.83711,0.04705 7.85651,0.0528 l 1.85345,0.01055 1.46074,1.234366 1.46075,1.234358 v 14.49752 14.49752 l 0.56279,0.08513 c 0.30953,0.04681 3.12272,0.09293 6.25154,0.102454 4.07759,0.01246 5.741,-0.05241 5.87325,-0.228952 z m 33.00776,5.143487 -1.954,-0.10568 -1.37483,-1.209626 -1.37485,-1.209625 0.0771,-4.216473 c 0.0752,-4.113141 0.0918,-4.229653 0.67552,-4.754165 0.32909,-0.295728 1.28584,-0.723259 2.12609,-0.95007 1.46935,-0.396631 2.32899,-0.411042 22.49984,-0.377123 11.53465,0.01941 21.10203,-0.03267 21.26086,-0.115682 0.16641,-0.087 0.28875,-0.689211 0.28875,-1.421401 0,-1.186539 -0.0413,-1.277304 -0.62532,-1.374301 -0.34392,-0.05712 -7.84793,-0.100648 -16.67554,-0.09673 -14.18879,0.0064 -16.1904,-0.03283 -17.25882,-0.337364 -2.70252,-0.770327 -2.92021,-1.107036 -2.97884,-4.607943 -0.0251,-1.487531 -0.11361,-2.762294 -0.19706,-2.832825 -0.0835,-0.07054 -1.53215,-0.124566 -3.21931,-0.1201 -4.06116,0.01078 -4.5464,-0.193874 -5.45825,-2.301979 -0.4145,-0.958273 -0.48526,-1.682123 -0.48214,-4.930688 0.006,-5.541469 0.0637,-5.600776 5.53698,-5.627969 l 3.66149,-0.01821 0.11591,-0.560229 c 0.0637,-0.308126 0.0874,-1.364882 0.0525,-2.348344 -0.0349,-0.983462 0.0441,-2.029713 0.17542,-2.325001 0.29182,-0.655932 1.85762,-2.058464 2.71036,-2.427759 0.49502,-0.214388 5.47186,-0.271323 23.8872,-0.273272 22.64994,-0.0024 23.28327,0.0085 24.07479,0.411155 0.4471,0.227481 0.81292,0.430039 0.81292,0.450122 0,0.02005 0.26189,0.65435 0.58195,1.409467 0.53297,1.25738 0.57949,1.693195 0.5526,5.177494 -0.0323,4.188537 -0.18287,4.67019 -1.61642,5.171967 -0.51764,0.18118 -5.41632,0.248483 -18.24712,0.25068 -9.64676,0.0016 -17.55474,0.0663 -17.57333,0.143594 -0.0185,0.07733 -0.0515,0.735034 -0.0732,1.461592 -0.0381,1.278175 -0.0187,1.321656 0.59658,1.340422 0.34978,0.0107 7.83966,0.01869 16.64415,0.01789 l 16.00819,-0.0016 1.66909,0.522778 c 2.38857,0.748119 2.55266,1.023988 2.58888,4.352862 0.016,1.480652 0.11506,2.764691 0.21986,2.853403 0.1048,0.08872 1.56014,0.187332 3.2341,0.219134 4.23376,0.08044 4.62246,0.254411 5.50424,2.463347 0.32629,0.817452 0.41579,1.856697 0.41579,4.828747 0,5.497755 -0.1292,5.624749 -5.67176,5.575044 l -3.54565,-0.03179 -0.11999,0.528402 c -0.066,0.290631 -0.0736,1.606328 -0.0167,2.923775 0.0826,1.917058 0.0213,2.541451 -0.3076,3.126931 -0.8201,1.460402 0.96844,1.371849 -28.56595,1.414332 -14.67425,0.02109 -27.55975,-0.0092 -28.63445,-0.06734 z m 51.60436,-7.962828 c 0.11548,-2.766336 0.16951,-3.035694 0.70526,-3.516788 0.96272,-0.86448 3.32187,-1.405616 5.87428,-1.347428 1.21127,0.02764 2.32984,-0.01638 2.48572,-0.09781 0.15745,-0.08222 0.2904,-0.716381 0.29912,-1.42681 0.015,-1.226169 -0.0125,-1.28403 -0.66913,-1.405904 -0.37668,-0.0699 -0.99581,-0.109738 -1.37586,-0.0885 -0.38005,0.02125 -1.52505,0.02852 -2.54445,0.01622 l -1.85344,-0.02237 -1.46075,-1.234358 -1.46075,-1.234365 v -2.557708 c 0,-1.709564 -0.096,-2.60786 -0.2896,-2.708955 -0.15928,-0.08318 -7.95389,-0.149338 -17.32135,-0.147005 -17.69988,0.004 -17.78376,6.31e-4 -18.62768,-0.858768 -0.1699,-0.172968 -0.5275,-0.819921 -0.79472,-1.437659 -0.41685,-0.963745 -0.48582,-1.689065 -0.48582,-5.110342 v -3.987194 l 0.85044,-0.718633 c 0.80989,-0.684379 0.93808,-0.719089 2.68887,-0.728124 1.01115,-0.0056 9.04213,-0.029 17.84662,-0.0528 l 16.00818,-0.04338 0.0739,-1.426706 c 0.0705,-1.360984 0.0475,-1.427513 -0.50026,-1.444145 -0.77441,-0.02357 -38.34433,-0.02461 -39.53161,-7.99e-4 l -0.93798,0.01853 v 2.806375 c 0,2.901327 -0.14767,3.390465 -1.23915,4.104545 -0.93542,0.61197 -2.9195,0.954232 -5.45177,0.940467 -1.41009,-0.008 -2.57901,0.0536 -2.5976,0.136085 -0.0185,0.08251 -0.0515,0.744484 -0.0732,1.471042 -0.0455,1.524933 -0.39307,1.393106 3.58048,1.357925 1.29138,-0.01142 2.58579,0.08362 2.87646,0.211233 0.82308,0.361314 2.6302,2.022715 2.7756,2.551772 0.072,0.261929 0.15864,1.522481 0.19255,2.801231 l 0.0617,2.325001 17.23183,0.03962 c 18.07696,0.04154 18.27073,0.05169 18.9839,0.985715 0.94766,1.241188 1.17837,2.473572 1.17837,6.294396 0,4.119221 -0.12729,4.61066 -1.35611,5.23566 -0.73535,0.374007 -1.77294,0.3904 -23.07512,0.364693 l -22.30515,-0.02692 -0.14269,0.602872 c -0.21828,0.922365 0.10218,2.216373 0.57286,2.31301 0.22427,0.04601 11.49468,0.07461 25.04535,0.06343 l 24.63758,-0.02029 0.12507,-2.995791 z"
       id="path1042" />
  </g>
</svg>
